<svg version="1.1" id="Layer_1" xmlns="http://www.w3.org/2000/svg" xmlns:xlink="http://www.w3.org/1999/xlink" x="0px" y="0px"
	 width="100%" viewBox="0 0 582 510" enable-background="new 0 0 582 510" xml:space="preserve">
<path fill="#FEFEFF" opacity="1.000000" stroke="none" 
	d="
M583.000000,179.000000 
	C583.000000,289.974701 583.000000,400.449432 583.000000,510.962067 
	C389.069702,510.962067 195.139389,510.962067 1.104542,510.962067 
	C1.104542,341.108673 1.104542,171.217239 1.104542,1.162907 
	C194.999893,1.162907 388.999939,1.162907 583.000000,1.162907 
	C583.000000,60.193909 583.000000,119.346954 583.000000,179.000000 
M397.635956,54.019073 
	C398.841797,54.019073 400.047638,54.019073 401.253479,54.019073 
	C401.290955,53.761608 401.328430,53.504139 401.365906,53.246674 
	C399.884003,52.878632 398.402130,52.510586 396.147675,51.984970 
	C387.876526,50.128330 379.617157,48.217190 371.332031,46.425262 
	C346.437103,41.040947 321.397003,38.596451 295.971100,42.239616 
	C244.690704,49.587357 199.821579,70.464607 162.310318,106.264778 
	C123.535278,143.271072 100.946037,188.603683 95.205643,241.994598 
	C90.537613,285.411530 98.640198,326.728973 119.186218,365.049316 
	C162.311630,445.482269 230.517517,484.984985 321.267090,486.388489 
	C319.339386,485.272705 317.199341,484.602692 315.033417,484.030762 
	C274.215424,473.252930 237.373093,454.919861 207.769760,424.396118 
	C158.326645,373.415680 139.111542,311.681976 149.600754,242.075089 
	C161.193314,165.146255 204.334763,110.278610 274.503723,77.012108 
	C313.162994,58.684071 354.365448,52.424068 397.635956,54.019073 
M193.366455,198.912521 
	C178.167984,239.610092 175.867020,281.029388 187.560165,322.868408 
	C224.245789,454.132446 378.921692,509.779480 491.026855,432.221527 
	C571.574036,376.496399 599.164368,268.122589 554.948364,181.139633 
	C516.396423,105.299202 436.994263,62.349091 351.882294,74.219818 
	C275.931763,84.812775 223.534470,127.665848 193.366455,198.912521 
M43.279099,389.213470 
	C97.087410,479.535248 182.761948,508.174805 249.387024,505.064270 
	C240.164703,502.290924 231.009201,499.858856 222.069626,496.796417 
	C169.921082,478.931824 127.034126,448.389954 98.448982,400.827271 
	C54.418438,327.565186 48.953423,250.206512 79.921463,170.845169 
	C101.225845,116.248711 137.405411,73.766663 189.682907,46.115349 
	C225.874619,26.972345 264.831268,20.054644 305.510376,21.681911 
	C310.594269,21.885279 315.693329,21.709692 321.280945,21.709692 
	C319.550385,21.082790 318.125977,20.448782 316.638672,20.048096 
	C309.573822,18.144770 302.499298,16.276184 295.414673,14.447577 
	C263.004700,6.082232 230.409256,4.402338 197.505859,11.467737 
	C150.183945,21.629246 110.001884,44.584942 76.762070,79.499268 
	C33.944214,124.474136 10.159162,178.183456 6.210084,240.148911 
	C2.821522,293.319244 16.257088,342.665527 43.279099,389.213470 
z"/>
<path fill="#203A70" opacity="1.000000" stroke="none" 
	d="
M193.545105,198.568024 
	C223.534470,127.665848 275.931763,84.812775 351.882294,74.219818 
	C436.994263,62.349091 516.396423,105.299202 554.948364,181.139633 
	C599.164368,268.122589 571.574036,376.496399 491.026855,432.221527 
	C378.921692,509.779480 224.245789,454.132446 187.560165,322.868408 
	C175.867020,281.029388 178.167984,239.610092 193.545105,198.568024 
M251.821442,308.000946 
	C266.654236,308.000946 281.510437,308.489014 296.309113,307.778534 
	C302.916260,307.461365 309.823761,305.645782 315.854126,302.889465 
	C324.880463,298.763763 328.422729,290.401764 328.475403,280.738922 
	C328.521179,272.339417 324.259094,266.626343 316.213257,263.569458 
	C328.315918,258.675293 332.731873,251.328094 330.985901,239.406342 
	C329.755219,231.003082 323.615417,226.338776 311.126068,225.706345 
	C299.821808,225.133942 288.469421,225.508469 277.138245,225.473984 
	C272.864075,225.460983 268.589813,225.471878 264.226685,225.471878 
	C258.475586,253.234634 252.847672,280.402740 247.179550,307.764954 
	C248.609940,307.855438 249.759857,307.928192 251.821442,308.000946 
M376.997803,253.737427 
	C374.131073,252.428925 370.990112,250.577942 372.514771,247.166336 
	C373.522064,244.912430 376.463959,242.647827 378.928680,242.081772 
	C386.886383,240.254135 389.994995,242.230881 393.458466,249.871002 
	C400.930908,249.871002 408.364014,249.871002 415.997162,249.871002 
	C415.844604,240.052963 412.624176,232.015747 403.645813,227.928741 
	C388.429993,221.002365 373.198242,221.390808 358.913147,230.554581 
	C350.233337,236.122604 346.736206,245.991333 348.880615,255.830688 
	C350.578308,263.620209 355.938477,268.160004 362.845795,270.917725 
	C369.462463,273.559448 376.464172,275.256256 383.014343,278.034027 
	C385.146606,278.938293 387.813843,282.039764 387.677795,283.954498 
	C387.509583,286.321655 385.158569,289.451263 382.909088,290.592194 
	C373.757568,295.233765 366.791748,291.476929 363.473541,280.786011 
	C355.685516,280.786011 347.927185,280.786011 339.966949,280.786011 
	C339.186096,290.765503 342.864014,298.350372 350.776428,303.728668 
	C364.462799,313.031738 388.569916,311.842712 401.724213,301.723846 
	C415.069275,291.458221 417.627899,267.957794 396.757751,259.803375 
	C390.598389,257.396790 384.084473,255.897690 376.997803,253.737427 
M487.774231,256.002594 
	C494.393341,256.002594 501.012482,256.002594 507.610229,256.002594 
	C507.767456,242.915909 502.189423,232.777206 492.379761,227.721649 
	C475.133698,218.833633 451.245270,223.441528 439.203430,238.539322 
	C427.315369,253.444229 425.020660,270.492493 430.281677,288.493103 
	C432.998962,297.790436 439.337555,304.533386 448.603943,307.561951 
	C462.559723,312.123169 476.304871,311.061554 488.937042,303.269806 
	C498.461456,297.395020 503.470367,288.357422 505.239868,277.267883 
	C496.765808,277.267883 488.837036,277.267883 481.296631,277.267883 
	C479.725952,280.088867 478.659882,282.773956 476.943054,284.944275 
	C471.515625,291.805389 459.832397,291.112152 455.517151,283.841125 
	C449.851715,274.295074 453.899567,253.645493 462.734131,247.025055 
	C471.394073,240.535416 481.206848,243.736206 484.003937,253.830872 
	C484.257721,254.746796 485.866058,255.287399 487.774231,256.002594 
z"/>
<path fill="#213B71" opacity="1.000000" stroke="none" 
	d="
M43.107891,388.890015 
	C16.257088,342.665527 2.821522,293.319244 6.210084,240.148911 
	C10.159162,178.183456 33.944214,124.474136 76.762070,79.499268 
	C110.001884,44.584942 150.183945,21.629246 197.505859,11.467737 
	C230.409256,4.402338 263.004700,6.082232 295.414673,14.447577 
	C302.499298,16.276184 309.573822,18.144770 316.638672,20.048096 
	C318.125977,20.448782 319.550385,21.082790 321.280945,21.709692 
	C315.693329,21.709692 310.594269,21.885279 305.510376,21.681911 
	C264.831268,20.054644 225.874619,26.972345 189.682907,46.115349 
	C137.405411,73.766663 101.225845,116.248711 79.921463,170.845169 
	C48.953423,250.206512 54.418438,327.565186 98.448982,400.827271 
	C127.034126,448.389954 169.921082,478.931824 222.069626,496.796417 
	C231.009201,499.858856 240.164703,502.290924 249.387024,505.064270 
	C182.761948,508.174805 97.087410,479.535248 43.107891,388.890015 
z"/>
<path fill="#213B71" opacity="1.000000" stroke="none" 
	d="
M396.889893,53.786976 
	C354.365448,52.424068 313.162994,58.684071 274.503723,77.012108 
	C204.334763,110.278610 161.193314,165.146255 149.600754,242.075089 
	C139.111542,311.681976 158.326645,373.415680 207.769760,424.396118 
	C237.373093,454.919861 274.215424,473.252930 315.033417,484.030762 
	C317.199341,484.602692 319.339386,485.272705 321.267090,486.388489 
	C230.517517,484.984985 162.311630,445.482269 119.186218,365.049316 
	C98.640198,326.728973 90.537613,285.411530 95.205643,241.994598 
	C100.946037,188.603683 123.535278,143.271072 162.310318,106.264778 
	C199.821579,70.464607 244.690704,49.587357 295.971100,42.239616 
	C321.397003,38.596451 346.437103,41.040947 371.332031,46.425262 
	C379.617157,48.217190 387.876526,50.128330 396.549286,52.337811 
	C396.930573,53.056091 396.910217,53.421535 396.889893,53.786976 
z"/>
<path fill="#7585A6" opacity="1.000000" stroke="none" 
	d="
M397.262939,53.903023 
	C396.910217,53.421535 396.930573,53.056091 396.935577,52.416595 
	C398.402130,52.510586 399.884003,52.878632 401.365906,53.246674 
	C401.328430,53.504139 401.290955,53.761608 401.253479,54.019073 
	C400.047638,54.019073 398.841797,54.019073 397.262939,53.903023 
z"/>
<path fill="#FEFEFE" opacity="1.000000" stroke="none" 
	d="
M251.365601,308.000946 
	C249.759857,307.928192 248.609940,307.855438 247.179550,307.764954 
	C252.847672,280.402740 258.475586,253.234634 264.226685,225.471878 
	C268.589813,225.471878 272.864075,225.460983 277.138245,225.473984 
	C288.469421,225.508469 299.821808,225.133942 311.126068,225.706345 
	C323.615417,226.338776 329.755219,231.003082 330.985901,239.406342 
	C332.731873,251.328094 328.315918,258.675293 316.213257,263.569458 
	C324.259094,266.626343 328.521179,272.339417 328.475403,280.738922 
	C328.422729,290.401764 324.880463,298.763763 315.854126,302.889465 
	C309.823761,305.645782 302.916260,307.461365 296.309113,307.778534 
	C281.510437,308.489014 266.654236,308.000946 251.365601,308.000946 
M303.035278,277.952026 
	C300.984680,276.318665 299.065582,273.526978 296.858032,273.276398 
	C291.021088,272.613831 285.059265,273.051910 278.997803,273.051910 
	C277.930237,278.334869 276.937622,283.247040 275.870636,288.527130 
	C282.363098,288.527130 288.156464,288.759644 293.923004,288.465881 
	C300.522278,288.129669 302.942963,285.352142 303.035278,277.952026 
M286.960907,244.988892 
	C286.050751,245.706207 284.571381,246.271530 284.332001,247.167984 
	C283.441925,250.500748 282.959595,253.942429 282.158386,258.230682 
	C288.917511,257.797333 295.213470,257.726288 301.400787,256.870056 
	C305.011444,256.370422 306.483856,253.322205 305.943817,249.694214 
	C305.435577,246.279648 302.996704,245.062576 299.859589,245.007751 
	C295.864960,244.937943 291.868195,244.988388 286.960907,244.988892 
z"/>
<path fill="#FDFDFE" opacity="1.000000" stroke="none" 
	d="
M377.365417,253.860077 
	C384.084473,255.897690 390.598389,257.396790 396.757751,259.803375 
	C417.627899,267.957794 415.069275,291.458221 401.724213,301.723846 
	C388.569916,311.842712 364.462799,313.031738 350.776428,303.728668 
	C342.864014,298.350372 339.186096,290.765503 339.966949,280.786011 
	C347.927185,280.786011 355.685516,280.786011 363.473541,280.786011 
	C366.791748,291.476929 373.757568,295.233765 382.909088,290.592194 
	C385.158569,289.451263 387.509583,286.321655 387.677795,283.954498 
	C387.813843,282.039764 385.146606,278.938293 383.014343,278.034027 
	C376.464172,275.256256 369.462463,273.559448 362.845795,270.917725 
	C355.938477,268.160004 350.578308,263.620209 348.880615,255.830688 
	C346.736206,245.991333 350.233337,236.122604 358.913147,230.554581 
	C373.198242,221.390808 388.429993,221.002365 403.645813,227.928741 
	C412.624176,232.015747 415.844604,240.052963 415.997162,249.871002 
	C408.364014,249.871002 400.930908,249.871002 393.458466,249.871002 
	C389.994995,242.230881 386.886383,240.254135 378.928680,242.081772 
	C376.463959,242.647827 373.522064,244.912430 372.514771,247.166336 
	C370.990112,250.577942 374.131073,252.428925 377.365417,253.860077 
z"/>
<path fill="#FDFDFE" opacity="1.000000" stroke="none" 
	d="
M487.309814,256.002441 
	C485.866058,255.287399 484.257721,254.746796 484.003937,253.830872 
	C481.206848,243.736206 471.394073,240.535416 462.734131,247.025055 
	C453.899567,253.645493 449.851715,274.295074 455.517151,283.841125 
	C459.832397,291.112152 471.515625,291.805389 476.943054,284.944275 
	C478.659882,282.773956 479.725952,280.088867 481.296631,277.267883 
	C488.837036,277.267883 496.765808,277.267883 505.239868,277.267883 
	C503.470367,288.357422 498.461456,297.395020 488.937042,303.269806 
	C476.304871,311.061554 462.559723,312.123169 448.603943,307.561951 
	C439.337555,304.533386 432.998962,297.790436 430.281677,288.493103 
	C425.020660,270.492493 427.315369,253.444229 439.203430,238.539322 
	C451.245270,223.441528 475.133698,218.833633 492.379761,227.721649 
	C502.189423,232.777206 507.767456,242.915909 507.610229,256.002594 
	C501.012482,256.002594 494.393341,256.002594 487.309814,256.002441 
z"/>
<path fill="#274075" opacity="1.000000" stroke="none" 
	d="
M303.085754,278.363098 
	C302.942963,285.352142 300.522278,288.129669 293.923004,288.465881 
	C288.156464,288.759644 282.363098,288.527130 275.870636,288.527130 
	C276.937622,283.247040 277.930237,278.334869 278.997803,273.051910 
	C285.059265,273.051910 291.021088,272.613831 296.858032,273.276398 
	C299.065582,273.526978 300.984680,276.318665 303.085754,278.363098 
z"/>
<path fill="#263F75" opacity="1.000000" stroke="none" 
	d="
M287.416626,244.987946 
	C291.868195,244.988388 295.864960,244.937943 299.859589,245.007751 
	C302.996704,245.062576 305.435577,246.279648 305.943817,249.694214 
	C306.483856,253.322205 305.011444,256.370422 301.400787,256.870056 
	C295.213470,257.726288 288.917511,257.797333 282.158386,258.230682 
	C282.959595,253.942429 283.441925,250.500748 284.332001,247.167984 
	C284.571381,246.271530 286.050751,245.706207 287.416626,244.987946 
z"/>
</svg>