<?xml version="1.0" encoding="utf-8"?>
<!-- Generator: Adobe Illustrator 19.2.1, SVG Export Plug-In . SVG Version: 6.00 Build 0)  -->
<svg version="1.1" id="layer" xmlns="http://www.w3.org/2000/svg" xmlns:xlink="http://www.w3.org/1999/xlink" x="0px" y="0px"
	 viewBox="0 0 652 652" style="enable-background:new 0 0 652 652;" xml:space="preserve">
<style type="text/css">
	.st0{fill:url(#Path_8_);}
	.st1{fill:url(#Path_9_);}
	.st2{fill:url(#Path_10_);}
	.st3{fill:url(#Path_11_);}
	.st4{fill:#001D43;}
</style>
<linearGradient id="Path_8_" gradientUnits="userSpaceOnUse" x1="-145.8111" y1="598.2339" x2="-140.7917" y2="598.2339" gradientTransform="matrix(25.031 0 0 -35.9201 3676.7668 21813.625)">
	<stop  offset="0" style="stop-color:#0054B9"/>
	<stop  offset="0.59" style="stop-color:#0054B9"/>
	<stop  offset="0.67" style="stop-color:#0256BD"/>
	<stop  offset="0.75" style="stop-color:#085EC9"/>
	<stop  offset="0.84" style="stop-color:#126ADD"/>
	<stop  offset="0.92" style="stop-color:#1F7CFA"/>
	<stop  offset="0.93" style="stop-color:#227FFF"/>
</linearGradient>
<path id="Path" class="st0" d="M111,240.7L27,409.2h14.9c28.2,0,61.8-20.9,76.3-49.3l26.3-52.5L111,240.7z"/>
<linearGradient id="Path_9_" gradientUnits="userSpaceOnUse" x1="-144.7332" y1="586.8221" x2="-140.0416" y2="586.8221" gradientTransform="matrix(26.0068 0 0 -15.9476 3835.5615 9730.2383)">
	<stop  offset="6.000000e-002" style="stop-color:#0054B9"/>
	<stop  offset="0.16" style="stop-color:#0D64D3"/>
	<stop  offset="0.27" style="stop-color:#1873EB"/>
	<stop  offset="0.38" style="stop-color:#207CFA"/>
	<stop  offset="0.47" style="stop-color:#227FFF"/>
</linearGradient>
<path id="Path_1_" class="st1" d="M124.5,337c-5.9-1.7-11.9-2.5-18-2.5c-19.9,0-34.8,8.8-35,8.9c11.9,2.9,25,10.4,37.5,26.2
	c39.6,49.8,84.5,38.7,84.5,38.7S176.7,351.4,124.5,337z"/>
<linearGradient id="Path_10_" gradientUnits="userSpaceOnUse" x1="-144.7332" y1="586.5786" x2="-140.0416" y2="586.5786" gradientTransform="matrix(26.0068 0 0 -15.7202 3835.5615 9592.4463)">
	<stop  offset="6.000000e-002" style="stop-color:#0054B9"/>
	<stop  offset="0.39" style="stop-color:#0275EE"/>
	<stop  offset="0.71" style="stop-color:#0264F6"/>
	<stop  offset="1" style="stop-color:#025BFA"/>
</linearGradient>
<path id="Path_2_" class="st2" d="M124.5,337c-28.4-8.3-52.9,6.3-53,6.4l0.5,0.1c76.5-11.3,60.5,50,121.5,64.7
	C193.5,408.2,176.7,351.4,124.5,337z"/>
<linearGradient id="Path_11_" gradientUnits="userSpaceOnUse" x1="-142.8974" y1="595.694" x2="-141.5278" y2="600.3051" gradientTransform="matrix(21.4923 0 0 -35.9201 3135.3533 21813.625)">
	<stop  offset="0.29" style="stop-color:#005BCC"/>
	<stop  offset="0.64" style="stop-color:#227FFF"/>
</linearGradient>
<path id="Path_3_" class="st3" d="M127.8,274.3L111,240.7L27,409.2h14.9h1.5l44.1-88.5C101.2,294.3,115,282.2,127.8,274.3z"/>
<path class="st4" d="M579.8,333.6c0.8,10.2,10,18.9,21.1,18.9c6.1,0,12.1-1.9,17.1-5.5c0.4-0.3,0.9-0.5,1.4-0.5
	c0.3,0,0.7,0.2,1.1,0.7l2.1,2.5c0.8,1,0.8,1.6,0,2.4c-5.1,5-14,7.6-22,7.6c-16.5,0-29.1-13-29.1-28.9c0-15.9,12.7-29,28.6-29
	c17,0,27,13.7,27,30.1c0,1.3-0.2,1.7-1.6,1.7H579.8z M580.1,327.9h38.5c-0.4-9.8-7.5-19.3-18.7-19.3
	C588.7,308.6,580.4,318.1,580.1,327.9L580.1,327.9z M378.7,301.8c-4.6,0-9.2,0.4-13.7,1.1c-0.7,0.1-1.3,0.5-1.5,1.2l-2.5,5.2
	c-0.1,0.3-0.1,0.7,0.1,1c0.2,0.3,0.6,0.4,0.9,0.4l2.8-0.4c4.5-0.8,9-1.2,13.5-1.2c11.5,0,15.5,5,15.5,18.8
	c-5.6-2.3-11.9-3.8-17.7-3.8c-13.4,0-22.4,5.8-22.4,17.7c0,11.7,8.9,18.1,19.4,18.1c11.8,0,19-6.3,21.9-10.4l0.4,7.4
	c0.3,1.3,0.8,1.7,1.6,1.7h3.2c1.2,0,1.6-0.4,1.6-1.7v-28.8C402,309.9,397,301.8,378.7,301.8z M393.9,343
	c-3.5,5.1-10.6,10.3-18.1,10.3c-8.8,0-13.8-4.9-13.8-11.7c0-7.4,5.4-11.6,15.8-11.6c6.2,0,10.5,1.6,16,3.9V343z M566.7,308.5
	l1.9-4.1c0.2-0.4,0.2-0.9,0-1.3c-0.2-0.4-0.6-0.7-1-0.8c-1.3-0.3-2.6-0.4-4-0.5c-12.2,0-20.6,7.3-22.8,11.9l-1.2-9
	c-0.1-1.4-1-1.7-1.9-1.7h-2.7c-1.2,0-1.6,0.4-1.6,1.7v52c0,1.3,0.4,1.7,1.6,1.7h4.9c1.2,0,1.6-0.4,1.6-1.7v-26.8
	c0-10.2,6.8-20.1,20.9-20.1c0.4,0,1.2,0,2.2,0C565.6,309.8,566.3,309.3,566.7,308.5L566.7,308.5z M256.7,281.8
	c0.5-0.9,0.8-1.5,1.4-1.5h0.3c0.5,0,0.9,0.7,1.3,1.5l35.7,74.9c0.4,1,0,1.7-1.1,1.7h-6.3c-1.1,0-1.5-0.4-2.2-1.7l-8.5-18.5h-38.1
	l-8.5,18.5c-0.7,1.3-1.1,1.7-2.3,1.7h-6.3c-1,0-1.4-0.8-1-1.7L256.7,281.8z M274.4,330.8l-16-35.6h-0.1l-16,35.6H274.4z
	 M320.8,360.4c-0.5,0-0.7-0.4-1.3-1.5l-25.6-54.1c-0.4-1,0-1.7,1-1.7h5.4c1.2,0,1.6,0.3,2.3,1.7l18.5,39.8v0.1l18.3-39.9
	c0.7-1.4,1.2-1.7,2.2-1.7h5.4c1.2,0,1.4,0.9,1.1,1.7l-25.5,54.1c-0.6,1-0.8,1.5-1.4,1.5H320.8z M466.5,304.4c0-1.3,0.4-1.7,1.6-1.7
	h4.9c1.2,0,1.6,0.4,1.6,1.7v28.3c0,13,6.5,19.3,15.4,19.3c9.5,0,15.6-9.2,15.6-20.1v-27.5c0-1.3,0.4-1.7,1.6-1.7h4.9
	c1.2,0,1.6,0.4,1.6,1.7v52.1c0,1.3-0.4,1.7-1.6,1.7h-2.7c-0.9,0-1.3-0.4-1.9-1.7l-0.8-9.4c-2.3,4.3-8,12.3-18.7,12.3
	c-11.7,0-21.6-7.1-21.6-24.5L466.5,304.4z M452.9,352c-0.5-1-1.6-1.4-2.6-1c-2.1,0.8-4.2,1.2-6.4,1.2c-8.7,0-12.6-4.7-12.6-17.5
	v-25.1h15.9c1,0,2-0.6,2.4-1.5l1.8-3.8c0.1-0.3,0.1-0.7-0.1-0.9c-0.2-0.3-0.5-0.5-0.8-0.5h-19.2v-11.2c0-1-0.8-1.7-1.7-1.7h-4.7
	c-0.9,0-1.6,0.7-1.6,1.6V303H418c-1.3,0-1.7,0.3-1.7,1.7v3.3c0,1,0.8,1.7,1.7,1.7h5.3v25.8c0,15.2,5.3,24.2,19.8,24.2
	c3.7,0,7.7-1.5,10-2.5c0.5-0.2,0.9-0.7,1.1-1.2c0.2-0.5,0.2-1.1-0.1-1.6L452.9,352z"/>
</svg>
